PathFileType  4	(X/Y/Z) C:\Users\antoi\Documents\MyRepositories\mobilecap\ResultsAnalysis
DataRate	CameraRate	NumFrames	NumMarkers	Units	OrigDataRate	OrigDataStartFrame	OrigNumFrames
100.0	100.0	4	51	mm	100.0	84	134
Frame#	Time	r_knee			r_shank_antsup			r_ankle			r_calc			r_5meta			r_toe			L_knee			L_shank_antsup			L_ankle			L_calc			L_5meta			L_toe			r_sh2			r_sh3			r_sh4			L_sh2			L_sh3			r_thigh1			r_thigh2			r_thigh3			r_thigh4			r_thigh5			L_thigh1			L_thigh2			L_thigh3			L_thigh4			r.ASIS			r.PSIS			L.ASIS			L.PSIS			C7			R_Shoulder			L_Shoulder			R_Sternum			L_Sternum			R_humerus			R_elbow_med			R_elbow_lat			R_forearm			R_wrist_radius			R_wrist_ulna			L_humerus			L_elbow_med			L_elbow_lat			L_forearm			L_wrist_radius			L_wrist_ulna			R_HJC			L_HJC			R_HJC_reg			L_HJC_reg			
		X1	Y1	Z1	X2	Y2	Z2	X3	Y3	Z3	X4	Y4	Z4	X5	Y5	Z5	X6	Y6	Z6	X7	Y7	Z7	X8	Y8	Z8	X9	Y9	Z9	X10	Y10	Z10	X11	Y11	Z11	X12	Y12	Z12	X13	Y13	Z13	X14	Y14	Z14	X15	Y15	Z15	X16	Y16	Z16	X17	Y17	Z17	X18	Y18	Z18	X19	Y19	Z19	X20	Y20	Z20	X21	Y21	Z21	X22	Y22	Z22	X23	Y23	Z23	X24	Y24	Z24	X25	Y25	Z25	X26	Y26	Z26	X27	Y27	Z27	X28	Y28	Z28	X29	Y29	Z29	X30	Y30	Z30	X31	Y31	Z31	X32	Y32	Z32	X33	Y33	Z33	X34	Y34	Z34	X35	Y35	Z35	X36	Y36	Z36	X37	Y37	Z37	X38	Y38	Z38	X39	Y39	Z39	X40	Y40	Z40	X41	Y41	Z41	X42	Y42	Z42	X43	Y43	Z43	X44	Y44	Z44	X45	Y45	Z45	X46	Y46	Z46	X47	Y47	Z47	X48	Y48	Z48	X49	Y49	Z49	X50	Y50	Z50	X51	Y51	Z51	

84	0.83000000	1051.24834	516.79201	-36.38494	1060.07731	438.02383	-54.45946	810.07077	209.46819	-86.16998	740.82280	228.40049	-129.96829	851.02245	98.73773	-53.04889	911.31219	92.61425	-101.94384	904.15761	494.84007	-330.43230	930.34738	397.47726	-333.04370	853.94380	98.02861	-280.00454	792.97119	64.68999	-223.70675	949.54193	41.52741	-334.39033	1001.25939	64.45633	-284.28313	973.24956	359.77337	-40.72073	1002.03473	492.10121	-31.01158	921.77937	413.64482	-39.26176	843.04536	414.47551	-326.75604	833.83118	292.71282	-322.95739	991.62815	829.55979	-21.27942	1032.49978	723.46917	-18.35191	931.32599	677.89555	-26.61144	884.33634	787.78683	-20.44484	982.30908	681.64778	-0.80546	924.23759	761.21884	-393.57229	940.05147	626.98400	-364.50169	818.44687	753.80810	-348.93052	838.71545	617.79234	-326.13479	979.59674	970.35092	-75.97282	790.58362	1012.30900	-153.15445	981.03267	957.93939	-326.20441	782.83162	1020.32947	-253.46022	789.34448	1419.96183	-229.03344	886.02260	1397.78768	-45.59865	875.16824	1382.60994	-403.04630	929.17795	1397.22079	-202.53393	934.73551	1396.50021	-244.73459	898.77211	1262.63989	18.88317	853.04340	1047.74053	-24.52997	868.99443	1064.55638	44.42163	965.94129	960.68730	55.69145	1031.70670	841.54931	55.42920	1006.99274	827.43719	76.44492	901.40370	1265.56211	-458.21566	887.52248	1028.90373	-393.70474	893.68207	1051.22215	-470.30640	967.87576	964.25317	-486.70473	1013.20061	814.82928	-514.05135	984.83414	811.88918	-529.68645	899.07825	892.62158	-97.90647	897.69874	889.57863	-304.35513	913.96915	883.46257	-111.88102	901.26815	896.60233	-276.22243	
85	0.84000000	1067.67632	519.70758	-38.91436	1079.81141	441.46510	-57.27497	841.00333	200.48562	-88.17438	770.35777	215.95671	-131.22806	888.22365	92.18048	-55.63859	948.35691	89.60245	-105.06018	906.58304	495.23751	-329.93017	931.89230	397.81655	-332.59906	854.29554	98.35531	-279.76309	793.16168	64.74134	-223.63138	949.56261	41.52227	-334.42458	1001.30444	64.37527	-284.31364	996.99812	358.75295	-43.18075	1019.13653	492.38699	-33.07248	942.89802	410.05996	-40.75703	844.63614	415.25813	-326.23169	834.85944	293.50252	-322.61892	1003.85215	831.94120	-21.62104	1046.33982	726.30362	-19.51561	944.93306	679.81522	-26.34133	897.20480	788.99420	-19.61995	996.54040	683.90974	-1.29190	931.73732	761.11641	-393.26643	945.03503	626.71750	-363.91277	825.63460	755.79831	-348.83108	843.47650	619.49342	-325.57588	989.85132	971.96629	-76.73265	800.83660	1013.47151	-153.35216	991.21893	958.61858	-326.92275	793.06680	1021.09035	-253.61766	800.11365	1420.73166	-230.69091	894.82316	1398.85826	-46.56913	886.58164	1384.20940	-403.89149	939.22645	1398.36112	-203.12521	945.06723	1397.73961	-245.26368	906.46351	1263.63990	18.23194	859.41554	1049.29644	-25.91892	874.49481	1065.91373	43.48521	969.52145	960.64387	56.76546	1032.95634	840.38946	57.84653	1007.88282	826.81536	78.78964	914.58817	1268.03397	-459.65316	907.34686	1030.68036	-396.54460	913.63113	1053.49017	-473.01988	991.67277	969.64528	-488.76048	1044.39339	822.69577	-516.00757	1015.81712	818.28023	-531.86405	909.61376	894.03289	-98.07741	907.80639	890.30996	-304.51101	924.26779	884.91743	-112.29393	911.52848	897.40821	-276.68688	
86	0.85000000	1083.57880	522.15211	-41.36389	1099.01256	444.58066	-60.03094	872.50558	191.22511	-90.29523	800.80717	202.91701	-132.79415	925.93400	85.79151	-58.14822	985.90282	86.81769	-107.92335	909.15958	495.58798	-329.39771	933.52603	398.10575	-332.18363	854.67816	98.67256	-279.50147	793.28512	64.80761	-223.55407	949.57878	41.51421	-334.44946	1001.36609	64.30361	-284.33782	1020.65426	357.47882	-45.68822	1035.77765	492.07524	-34.99791	963.92672	405.92607	-42.26172	846.33248	416.01901	-325.71490	835.95855	294.28114	-322.29256	1016.17004	833.93079	-21.93812	1059.88716	728.68061	-20.64301	958.17732	681.48423	-25.94226	910.12645	789.99054	-18.76546	1010.45417	685.83027	-1.72219	939.13814	760.89295	-392.92955	950.03144	626.38834	-363.32893	832.76134	757.66379	-348.66919	848.31573	621.04492	-324.99110	1000.14096	973.12409	-77.47565	811.14256	1014.40629	-153.44772	1001.41709	959.00714	-327.63418	803.34785	1021.64149	-253.68030	810.91014	1421.22093	-232.30690	903.63678	1399.61985	-47.50895	898.04685	1385.50938	-404.70428	949.31217	1399.25147	-203.70606	955.41862	1398.72112	-245.78527	914.10183	1264.34747	17.61317	865.82846	1050.53177	-27.26692	880.05336	1066.99839	42.56138	973.13510	960.38067	57.83370	1034.28999	839.06241	60.32066	1008.70125	826.04156	81.05451	927.88269	1270.24277	-461.10946	927.04852	1032.39164	-399.32902	933.40270	1055.64156	-475.63819	1015.13292	975.12432	-490.72369	1075.29149	830.89475	-517.62316	1046.47310	824.96133	-533.76670	920.13099	895.07163	-98.25858	917.85783	890.79941	-304.67578	934.50710	886.06843	-112.69050	921.71895	897.93795	-277.13283	
87	0.86000000	1098.90896	524.12529	-43.69047	1117.57781	447.32377	-62.66726	904.52040	181.81661	-92.51510	832.17216	189.42470	-134.65377	964.07365	79.67726	-60.54517	1023.88181	84.35378	-110.49858	911.91078	495.86042	-328.88597	935.27491	398.32857	-331.80745	855.04093	98.98070	-279.24716	793.33530	64.90051	-223.47316	949.58831	41.49817	-334.46309	1001.45029	64.24407	-284.35926	1044.13776	356.00085	-48.20676	1051.89655	491.15929	-36.81487	984.80687	401.28148	-43.81737	848.16505	416.74413	-325.22243	837.14874	295.04914	-321.98812	1028.47159	835.52557	-22.27874	1073.11302	730.61399	-21.79401	971.20568	682.80788	-25.47432	923.02744	790.73297	-17.93594	1024.07076	687.40261	-2.10948	946.48507	760.55152	-392.55835	955.07941	625.99510	-362.75093	839.86919	759.34790	-348.44867	853.26652	622.42962	-324.38964	1010.47233	973.83622	-78.20221	821.51161	1015.11265	-153.47000	1011.62225	959.06122	-328.32057	813.68729	1021.99099	-253.67672	821.66621	1421.44640	-233.87071	912.49578	1400.05656	-48.41507	909.57885	1386.48189	-405.48261	959.44740	1399.86507	-204.26867	965.81522	1399.41712	-246.29380	921.70072	1264.75261	17.02203	872.30813	1051.41984	-28.53818	885.69131	1067.79818	41.64811	976.79466	959.87568	58.89073	1035.74341	837.53889	62.85669	1009.50287	825.08640	83.23481	941.30317	1272.14921	-462.54382	946.60441	1033.98387	-402.05807	952.99439	1057.64199	-478.17678	1038.23851	980.62435	-492.59697	1105.81672	839.38747	-518.93751	1076.76559	831.89122	-535.39244	930.61937	895.75051	-98.43828	927.85247	891.01817	-304.83806	944.69528	886.88903	-113.07747	931.85242	898.17886	-277.55557	
